<svg xmlns="http://www.w3.org/2000/svg" viewBox="0 0 100 100" width="100" height="100">
  <path d="M29 8a4 4 0 0 1 3.3 6.2l-5.6 8.3a4 4 0 1 1-6.6-4.5l5.6-8.3A4 4 0 0 1 29 8zm42 0a4 4 0 0 1 3.3 1.7l5.6 8.3a4 4 0 1 1-6.6 4.5l-5.6-8.3A4 4 0 0 1 71 8z"/>
  <path d="M12.4 32.6c5.6-3.4 13.9-1.6 20 4l-4.1 7.1c-6.9 2.5-14.9 1-19.2-4-2.4-2.9-1.2-5.4 3.3-7.1zm75.2 0c4.5 1.7 5.7 4.2 3.3 7.1-4.3 5-12.3 6.5-19.2 4l-4.1-7.1c6.1-5.6 14.4-7.4 20-4z"/>
  <path d="M50 20c14.9 0 26 10.7 26 26v14c0 17.2-11.6 30-26 30S24 77.2 24 60V46c0-15.3 11.1-26 26-26zm-17.8 24h35.6C65.5 34.9 58.6 29 50 29s-15.5 5.9-17.8 15zM31 52v9h38v-9H31zm3.5 18c2 5.5 5.6 9.9 10 12.2h11c4.4-2.3 8-6.7 10-12.2h-31z"/>
</svg>
